<?xml version="1.0" standalone="no"?>
<!DOCTYPE svg PUBLIC "-//W3C//DTD SVG 20010904//EN"
 "http://www.w3.org/TR/2001/REC-SVG-20010904/DTD/svg10.dtd">
<svg version="1.0" xmlns="http://www.w3.org/2000/svg"
 width="5000.000000pt" height="5000.000000pt" viewBox="0 0 5000.000000 5000.000000"
 preserveAspectRatio="xMidYMid meet">

<g transform="translate(0.000000,5000.000000) scale(0.100000,-0.100000)"
fill="#000000" stroke="none">
<path d="M24535 47143 c-1305 -26 -2649 -174 -3936 -433 -187 -38 -342 -70
-344 -72 -2 -2 228 -2289 510 -5083 282 -2794 512 -5081 510 -5083 -1 -2 -85
8 -186 22 -381 52 -746 87 -1229 118 -265 18 -1385 17 -1660 0 -113 -7 -311
-22 -440 -33 -2234 -188 -4384 -868 -6349 -2006 -1864 -1081 -3493 -2562
-4737 -4308 -640 -898 -1189 -1877 -1604 -2860 -51 -121 -98 -233 -106 -250
-90 -211 -312 -834 -422 -1190 -368 -1182 -577 -2307 -668 -3600 -21 -308 -30
-1273 -15 -1616 113 -2499 825 -4910 2076 -7024 1175 -1988 2658 -3788 4372
-5308 67 -59 124 -107 127 -107 5 0 6678 6046 6982 6327 l102 94 90 -175 c537
-1038 1274 -2105 2080 -3014 524 -592 1190 -1229 1768 -1692 948 -760 1835
-1329 2874 -1844 1926 -955 3958 -1475 6125 -1567 305 -13 1179 -7 1450 11
717 45 1491 142 2035 254 530 109 516 106 860 194 2106 539 4010 1476 5700
2806 1270 998 2391 2222 3285 3586 120 182 395 624 395 634 0 3 13 27 29 55
16 27 88 154 159 282 1114 2010 1893 4122 2347 6364 59 291 62 310 44 317 -10
4 -2051 640 -4536 1414 -2485 773 -4520 1408 -4522 1410 -2 2 53 94 122 206
727 1179 1282 2433 1662 3753 537 1864 711 3812 514 5760 -264 2626 -1220
5151 -2761 7296 -812 1131 -1772 2144 -2848 3008 -1430 1149 -3040 2023 -4775
2594 -1269 418 -2596 666 -3935 737 -280 15 -797 30 -920 28 -58 -1 -159 -3
-225 -5z m1175 -13857 c728 -68 1325 -193 1984 -416 1057 -357 2051 -938 2881
-1684 264 -238 615 -603 732 -761 147 -199 592 -841 693 -999 706 -1110 1129
-2340 1259 -3666 47 -473 47 -1107 0 -1580 -72 -736 -230 -1427 -480 -2096
-501 -1346 -1335 -2532 -2434 -3459 -916 -773 -2005 -1346 -3150 -1658 -423
-116 -588 -144 -1060 -181 -110 -9 -272 -23 -360 -31 -538 -50 -1112 -50
-1625 1 -1897 186 -3694 1039 -5049 2395 -1349 1348 -2193 3129 -2385 5034
-55 538 -55 1143 0 1675 73 721 263 1518 472 1985 166 372 463 988 564 1170
289 524 641 1026 1038 1480 139 159 482 507 650 660 1354 1227 3083 1981 4885
2129 284 24 276 24 760 21 321 -2 500 -7 625 -19z"/>
</g>
</svg>
